<svg width="36" height="36" viewBox="0 0 36 36" fill="none" xmlns="http://www.w3.org/2000/svg">
<path fill-rule="evenodd" clip-rule="evenodd" d="M15.2447 2.75195C16.3994 0.751951 19.2862 0.751955 20.4409 2.75195L32.1322 23.002C33.2869 25.002 31.8435 27.502 29.5341 27.502H6.15145C3.84204 27.502 2.39867 25.002 3.55337 23.002L15.2447 2.75195ZM18.7088 3.75195C18.3239 3.08529 17.3617 3.08529 16.9768 3.75195L5.28542 24.002C4.90052 24.6686 5.38165 25.502 6.15145 25.502H29.5341C30.3039 25.502 30.7851 24.6686 30.4002 24.002L18.7088 3.75195ZM17.8428 10.9186C18.3951 10.9186 18.8428 11.3663 18.8428 11.9186V16.2936C18.8428 16.8459 18.3951 17.2936 17.8428 17.2936C17.2905 17.2936 16.8428 16.8459 16.8428 16.2936V11.9186C16.8428 11.3663 17.2905 10.9186 17.8428 10.9186ZM18.8428 20.6686C18.8428 20.1163 18.3951 19.6686 17.8428 19.6686C17.2905 19.6686 16.8428 20.1163 16.8428 20.6686V22.127C16.8428 22.6792 17.2905 23.127 17.8428 23.127C18.3951 23.127 18.8428 22.6792 18.8428 22.127V20.6686Z" fill="white"/>
</svg>
