<svg width="36" height="36" viewBox="0 0 36 36" fill="none" xmlns="http://www.w3.org/2000/svg">
<path fill-rule="evenodd" clip-rule="evenodd" d="M17.5614 1.98682C18.1136 1.98682 18.5614 2.43453 18.5614 2.98682V5.90348C18.5614 6.45577 18.1136 6.90348 17.5614 6.90348C17.0091 6.90348 16.5614 6.45577 16.5614 5.90348V2.98682C16.5614 2.43453 17.0091 1.98682 17.5614 1.98682ZM17.5614 28.2368C18.1136 28.2368 18.5614 28.6845 18.5614 29.2368V32.1535C18.5614 32.7058 18.1136 33.1535 17.5614 33.1535C17.0091 33.1535 16.5614 32.7058 16.5614 32.1535V29.2368C16.5614 28.6845 17.0091 28.2368 17.5614 28.2368ZM32.1447 18.5702C32.697 18.5702 33.1447 18.1224 33.1447 17.5701C33.1447 17.0179 32.697 16.5701 32.1447 16.5701H29.228C28.6757 16.5701 28.228 17.0179 28.228 17.5701C28.228 18.1224 28.6757 18.5702 29.228 18.5702H32.1447ZM6.89469 17.5701C6.89469 18.1224 6.44698 18.5702 5.89469 18.5702H2.97803C2.42574 18.5702 1.97803 18.1224 1.97803 17.5701C1.97803 17.0179 2.42574 16.5701 2.97803 16.5701H5.89469C6.44698 16.5701 6.89469 17.0179 6.89469 17.5701ZM28.5804 7.96532C28.9709 7.57479 28.9709 6.94163 28.5804 6.5511C28.1899 6.16058 27.5567 6.16058 27.1662 6.5511L25.1038 8.6135C24.7133 9.00402 24.7133 9.63719 25.1038 10.0277C25.4943 10.4182 26.1275 10.4182 26.518 10.0277L28.5804 7.96532ZM10.0189 25.1126C10.4094 25.5032 10.4094 26.1363 10.0189 26.5268L7.95648 28.5892C7.56596 28.9798 6.9328 28.9798 6.54227 28.5892C6.15175 28.1987 6.15175 27.5656 6.54227 27.175L8.60467 25.1126C8.99519 24.7221 9.62836 24.7221 10.0189 25.1126ZM27.1662 28.5892C27.5567 28.9797 28.1899 28.9797 28.5804 28.5892C28.9709 28.1987 28.9709 27.5655 28.5804 27.175L26.518 25.1126C26.1275 24.7221 25.4943 24.7221 25.1038 25.1126C24.7133 25.5031 24.7133 26.1363 25.1038 26.5268L27.1662 28.5892ZM10.0189 10.0277C9.62836 10.4182 8.99519 10.4182 8.60467 10.0277L6.54227 7.96527C6.15175 7.57475 6.15175 6.94158 6.54227 6.55106C6.9328 6.16053 7.56596 6.16054 7.95648 6.55106L10.0189 8.61345C10.4094 9.00398 10.4094 9.63714 10.0189 10.0277ZM11.2697 17.5701C11.2697 14.0954 14.0866 11.2785 17.5614 11.2785C21.0362 11.2785 23.853 14.0954 23.853 17.5701C23.853 21.0449 21.0362 23.8618 17.5614 23.8618C14.0866 23.8618 11.2697 21.0449 11.2697 17.5701ZM17.5614 9.27848C12.982 9.27848 9.26969 12.9908 9.26969 17.5701C9.26969 22.1495 12.982 25.8618 17.5614 25.8618C22.1407 25.8618 25.853 22.1495 25.853 17.5701C25.853 12.9908 22.1407 9.27848 17.5614 9.27848Z" fill="white"/>
</svg>
